<?xml version="1.0" standalone="no"?>
<!DOCTYPE svg PUBLIC "-//W3C//DTD SVG 20010904//EN"
 "http://www.w3.org/TR/2001/REC-SVG-20010904/DTD/svg10.dtd">
<svg version="1.0" xmlns="http://www.w3.org/2000/svg"
 width="128.000000pt" height="128.000000pt" viewBox="0 0 128.000000 128.000000"
 preserveAspectRatio="xMidYMid meet">
<metadata>
Created by potrace 1.14, written by Peter Selinger 2001-2017
</metadata>
<g transform="translate(0.000000,128.000000) scale(0.100000,-0.100000)"
fill="#000000" stroke="none">
<path d="M636 1255 c3 -20 0 -25 -15 -25 -11 0 -26 -3 -34 -6 -10 -3 -17 3
-21 21 -6 22 -10 24 -34 19 -47 -12 -61 -22 -55 -44 4 -16 -2 -23 -28 -34 -31
-13 -35 -13 -44 5 -10 18 -12 18 -45 1 -34 -17 -37 -22 -26 -52 3 -9 -5 -22
-20 -33 -24 -18 -27 -18 -44 -2 -17 15 -20 15 -44 -12 -30 -32 -31 -36 -11
-53 12 -10 11 -16 -12 -45 -24 -30 -29 -32 -47 -20 -18 13 -22 11 -44 -21 -20
-29 -22 -38 -11 -45 8 -5 17 -9 22 -9 10 0 9 -24 -3 -54 -8 -22 -13 -24 -34
-16 -21 8 -26 6 -30 -10 -4 -11 -9 -29 -12 -40 -4 -15 1 -22 21 -30 22 -8 26
-15 21 -33 -3 -12 -6 -28 -6 -34 0 -7 -11 -13 -25 -13 -22 0 -25 -4 -25 -39 0
-38 19 -59 41 -45 5 3 9 4 9 2 1 -2 3 -19 6 -40 5 -30 2 -37 -15 -43 -39 -12
-22 -79 19 -73 18 2 26 -4 37 -30 13 -31 12 -33 -12 -44 l-25 -11 22 -36 c12
-20 23 -37 24 -39 1 -2 12 2 24 8 18 9 25 8 41 -6 23 -21 24 -32 4 -54 -14
-16 -13 -20 17 -49 l32 -31 21 20 c21 20 21 20 43 -2 12 -12 25 -19 29 -15 11
12 10 166 -1 186 -6 10 -24 39 -39 64 -185 301 19 680 367 680 136 0 250 -55
359 -173 l55 -59 23 31 c13 18 34 43 46 57 l21 26 -24 32 -25 32 21 21 20 20
-32 35 -32 34 -23 -21 -23 -22 -21 21 c-18 17 -19 24 -9 42 9 19 8 25 -12 41
-30 25 -36 25 -57 -2 -17 -20 -21 -21 -50 -8 -28 11 -32 17 -29 42 4 25 1 29
-31 38 -46 13 -51 13 -51 -2 -1 -29 -17 -40 -49 -33 -24 5 -31 12 -31 31 0 22
-4 24 -44 24 -42 0 -44 -1 -40 -25z"/>
<path d="M680 896 c-105 -69 -149 -143 -166 -278 -3 -24 -7 -48 -9 -55 -8 -25
13 -21 61 11 104 71 151 151 161 271 3 41 1 75 -3 74 -5 0 -25 -11 -44 -23z"/>
<path d="M1200 872 c0 -4 -21 -31 -46 -60 -57 -65 -127 -106 -291 -172 -157
-63 -231 -103 -325 -179 -95 -75 -123 -127 -123 -226 0 -39 9 -101 20 -140
l19 -70 7 66 c10 96 62 190 129 232 14 9 45 23 69 31 l43 16 -70 -75 c-73 -78
-102 -136 -102 -202 l0 -33 113 3 c127 3 190 22 292 84 110 68 180 139 234
238 59 108 82 191 83 298 0 64 -29 197 -43 197 -5 0 -9 -3 -9 -8z"/>
<path d="M329 812 c-48 -70 -62 -140 -44 -217 13 -57 64 -175 75 -175 9 0 41
67 65 135 35 102 22 191 -38 259 l-32 36 -26 -38z"/>
</g>
</svg>
